<svg width="227" height="31" viewBox="0 0 227 31" fill="none" xmlns="http://www.w3.org/2000/svg">
<g clip-path="url(#clip0_136_30)">
<mask id="mask0_136_30" style="mask-type:alpha" maskUnits="userSpaceOnUse" x="0" y="0" width="227" height="31">
<mask id="mask1_136_30" style="mask-type:luminance" maskUnits="userSpaceOnUse" x="0" y="0" width="227" height="31">
<path d="M227 0H0V31H227V0Z" fill="white"/>
</mask>
<g mask="url(#mask1_136_30)">
<path d="M22.2035 30.5754L4.65565 11.1702L4.77808 14.4316V30.5754H0.207458V0.570781H0.778786L18.4083 20.2205L18.245 16.7961V0.611552H22.8156V30.5754H22.2035ZM42.8142 30.9831C40.7739 30.9831 38.8422 30.6297 37.0194 29.9231C35.2238 29.2165 33.6323 28.1973 32.2448 26.8656C30.8573 25.5067 29.7554 23.876 28.9393 21.9735C28.1503 20.0711 27.7558 17.924 27.7558 15.5323C27.7558 13.1135 28.1503 10.9528 28.9393 9.05035C29.7554 7.14788 30.8573 5.53079 32.2448 4.19906C33.6595 2.86733 35.2646 1.86174 37.0602 1.18229C38.883 0.475662 40.8011 0.122345 42.8142 0.122345C44.8274 0.122345 46.7318 0.475662 48.5274 1.18229C50.3502 1.86174 51.9554 2.86733 53.3429 4.19906C54.7576 5.53079 55.8595 7.14788 56.6484 9.05035C57.4646 10.9528 57.8727 13.1135 57.8727 15.5323C57.8727 17.924 57.4646 20.0711 56.6484 21.9735C55.8595 23.876 54.7712 25.5067 53.3837 26.8656C51.9962 28.1973 50.391 29.2165 48.5682 29.9231C46.7727 30.6297 44.8546 30.9831 42.8142 30.9831ZM42.8142 26.8656C44.6642 26.8656 46.3646 26.4307 47.9153 25.561C49.466 24.6913 50.7039 23.4276 51.6289 21.7697C52.5539 20.0847 53.0164 18.0191 53.0164 15.5731C53.0164 13.0999 52.5539 11.0344 51.6289 9.37649C50.7039 7.69145 49.466 6.42767 47.9153 5.58514C46.3918 4.71545 44.6914 4.2806 42.8142 4.2806C40.9371 4.2806 39.2231 4.71545 37.6724 5.58514C36.1488 6.42767 34.9246 7.69145 33.9996 9.37649C33.0746 11.0344 32.6121 13.0999 32.6121 15.5731C32.6121 18.0191 33.0882 20.0847 34.0404 21.7697C34.9926 23.4276 36.2441 24.6913 37.7948 25.561C39.3455 26.4307 41.0187 26.8656 42.8142 26.8656ZM69.593 30.9831C68.4503 30.9831 67.3213 30.8472 66.2058 30.5754C65.0904 30.2764 64.0973 29.9231 63.2267 29.5154C62.3562 29.0806 61.7032 28.6457 61.2679 28.2109L63.4308 24.338C63.7301 24.5826 64.1926 24.9088 64.8183 25.3164C65.4712 25.6969 66.2194 26.0367 67.0628 26.3356C67.9062 26.6346 68.7496 26.784 69.593 26.784C70.9805 26.784 72.1367 26.4579 73.0617 25.8056C74.0139 25.1534 74.49 24.2021 74.49 22.9519C74.49 21.9192 74.218 21.0631 73.6739 20.3836C73.1297 19.7042 72.4088 19.1062 71.511 18.5899C70.6404 18.0735 69.6882 17.5843 68.6544 17.1222C67.6477 16.633 66.6819 16.0895 65.7569 15.4916C64.6959 14.7849 63.7709 13.8473 62.9819 12.6786C62.1929 11.51 61.7984 10.0016 61.7984 8.15347C61.7984 6.33254 62.2065 4.83775 63.0227 3.66909C63.8661 2.50043 64.9679 1.63073 66.3282 1.05999C67.7157 0.462073 69.2257 0.163112 70.858 0.163112C72.1639 0.163112 73.2794 0.299002 74.2044 0.570781C75.1294 0.842566 75.9047 1.1687 76.5305 1.5492C77.1562 1.92969 77.6459 2.26942 77.9996 2.56837L75.8367 6.27819C75.3742 5.78898 74.6805 5.34054 73.7555 4.93287C72.8305 4.49802 71.7966 4.2806 70.654 4.2806C69.3209 4.2806 68.2599 4.59315 67.4709 5.21824C66.6819 5.81616 66.2874 6.71304 66.2874 7.90887C66.2874 8.96882 66.6411 9.87928 67.3485 10.6403C68.0558 11.3741 68.9536 12.0535 70.0419 12.6786C71.1573 13.2765 72.2999 13.8881 73.4698 14.5131C74.6397 15.1382 75.6735 15.872 76.5713 16.7146C77.3059 17.3668 77.9316 18.1822 78.4485 19.1606C78.9654 20.139 79.2239 21.2397 79.2239 22.4627C79.2239 24.3108 78.7886 25.8736 77.918 27.151C77.0746 28.4283 75.9319 29.3931 74.49 30.0454C73.0481 30.6705 71.4158 30.9831 69.593 30.9831ZM137.779 30.8608C135.385 30.8608 133.249 30.4531 131.372 29.6377C129.522 28.8224 127.944 27.7081 126.638 26.2948C125.36 24.8544 124.38 23.2237 123.7 21.4028C123.047 19.5547 122.721 17.5979 122.721 15.5323C122.721 13.2765 123.088 11.211 123.823 9.33572C124.584 7.46043 125.645 5.84334 127.006 4.48443C128.366 3.09835 129.985 2.02481 131.862 1.26383C133.739 0.50284 135.807 0.122345 138.065 0.122345C139.534 0.122345 140.84 0.271824 141.983 0.570781C143.125 0.869744 144.064 1.20947 144.798 1.58996C145.533 1.94328 145.995 2.22865 146.186 2.44607L144.186 6.52279C143.452 5.87051 142.54 5.34054 141.452 4.93287C140.391 4.5252 139.14 4.32136 137.698 4.32136C135.82 4.32136 134.12 4.78339 132.597 5.70745C131.1 6.6315 129.903 7.93605 129.005 9.62109C128.135 11.3061 127.699 13.3037 127.699 15.6139C127.699 17.6522 128.08 19.5139 128.842 21.199C129.604 22.8568 130.719 24.1885 132.188 25.1941C133.685 26.1997 135.494 26.7025 137.616 26.7025C138.786 26.7025 139.929 26.553 141.044 26.2541C142.187 25.9279 143.356 25.398 144.554 24.6642L145.9 28.537C145.547 28.8632 144.948 29.2165 144.105 29.597C143.261 29.9503 142.282 30.2493 141.166 30.4939C140.078 30.7385 138.949 30.8608 137.779 30.8608ZM150.61 30.5754V0.611552H155.18V12.8417H165.75V0.611552H170.321V30.5754H165.75V16.6738H155.18V30.5754H150.61ZM190.269 30.9831C188.228 30.9831 186.296 30.6297 184.474 29.9231C182.678 29.2165 181.087 28.1973 179.699 26.8656C178.312 25.5067 177.21 23.876 176.393 21.9735C175.605 20.0711 175.21 17.924 175.21 15.5323C175.21 13.1135 175.605 10.9528 176.393 9.05035C177.21 7.14788 178.312 5.53079 179.699 4.19906C181.114 2.86733 182.719 1.86174 184.514 1.18229C186.337 0.475662 188.255 0.122345 190.269 0.122345C192.282 0.122345 194.186 0.475662 195.982 1.18229C197.805 1.86174 199.41 2.86733 200.797 4.19906C202.212 5.53079 203.314 7.14788 204.103 9.05035C204.919 10.9528 205.327 13.1135 205.327 15.5323C205.327 17.924 204.919 20.0711 204.103 21.9735C203.314 23.876 202.226 25.5067 200.838 26.8656C199.451 28.1973 197.845 29.2165 196.023 29.9231C194.227 30.6297 192.309 30.9831 190.269 30.9831ZM190.269 26.8656C192.119 26.8656 193.819 26.4307 195.37 25.561C196.92 24.6913 198.158 23.4276 199.083 21.7697C200.008 20.0847 200.471 18.0191 200.471 15.5731C200.471 13.0999 200.008 11.0344 199.083 9.37649C198.158 7.69145 196.92 6.42767 195.37 5.58514C193.846 4.71545 192.146 4.2806 190.269 4.2806C188.391 4.2806 186.677 4.71545 185.127 5.58514C183.603 6.42767 182.379 7.69145 181.454 9.37649C180.529 11.0344 180.066 13.0999 180.066 15.5731C180.066 18.0191 180.542 20.0847 181.495 21.7697C182.447 23.4276 183.698 24.6913 185.249 25.561C186.8 26.4307 188.473 26.8656 190.269 26.8656ZM217.047 30.9831C215.905 30.9831 214.776 30.8472 213.66 30.5754C212.545 30.2764 211.552 29.9231 210.681 29.5154C209.811 29.0806 209.158 28.6457 208.722 28.2109L210.885 24.338C211.184 24.5826 211.647 24.9088 212.273 25.3164C212.926 25.6969 213.674 26.0367 214.517 26.3356C215.361 26.6346 216.204 26.784 217.047 26.784C218.435 26.784 219.591 26.4579 220.516 25.8056C221.468 25.1534 221.944 24.2021 221.944 22.9519C221.944 21.9192 221.672 21.0631 221.128 20.3836C220.584 19.7042 219.863 19.1062 218.965 18.5899C218.095 18.0735 217.143 17.5843 216.109 17.1222C215.102 16.633 214.136 16.0895 213.211 15.4916C212.15 14.7849 211.225 13.8473 210.436 12.6786C209.647 11.51 209.253 10.0016 209.253 8.15347C209.253 6.33254 209.661 4.83775 210.477 3.66909C211.32 2.50043 212.422 1.63073 213.783 1.05999C215.17 0.462073 216.68 0.163112 218.312 0.163112C219.618 0.163112 220.734 0.299002 221.659 0.570781C222.584 0.842566 223.359 1.1687 223.985 1.5492C224.611 1.92969 225.1 2.26942 225.454 2.56837L223.291 6.27819C222.829 5.78898 222.135 5.34054 221.21 4.93287C220.285 4.49802 219.251 4.2806 218.108 4.2806C216.775 4.2806 215.714 4.59315 214.925 5.21824C214.136 5.81616 213.742 6.71304 213.742 7.90887C213.742 8.96882 214.095 9.87928 214.803 10.6403C215.51 11.3741 216.408 12.0535 217.496 12.6786C218.612 13.2765 219.754 13.8881 220.924 14.5131C222.094 15.1382 223.128 15.872 224.026 16.7146C224.76 17.3668 225.386 18.1822 225.903 19.1606C226.42 20.139 226.678 21.2397 226.678 22.4627C226.678 24.3108 226.243 25.8736 225.372 27.151C224.529 28.4283 223.386 29.3931 221.944 30.0454C220.502 30.6705 218.87 30.9831 217.047 30.9831Z" fill="black"/>
<path d="M114.988 0.424652H94.5834C93.2919 0.424652 92.2454 1.47034 92.2454 2.76027C92.2454 4.0502 93.2919 5.09588 94.5834 5.09588H114.988C116.279 5.09588 117.326 4.0502 117.326 2.76027C117.326 1.47034 116.279 0.424652 114.988 0.424652Z" fill="black"/>
<path d="M113.287 13.1644H95.8586C94.5672 13.1644 93.5206 14.2101 93.5206 15.5C93.5206 16.79 94.5672 17.8356 95.8586 17.8356H113.287C114.579 17.8356 115.625 16.79 115.625 15.5C115.625 14.2101 114.579 13.1644 113.287 13.1644Z" fill="black"/>
<path d="M114.988 25.9041H94.5834C93.2919 25.9041 92.2454 26.9498 92.2454 28.2397C92.2454 29.5297 93.2919 30.5753 94.5834 30.5753H114.988C116.279 30.5753 117.326 29.5297 117.326 28.2397C117.326 26.9498 116.279 25.9041 114.988 25.9041Z" fill="black"/>
</g>
</mask>
<g mask="url(#mask0_136_30)">
<path d="M231.676 -16.9863H-14.4532V50.1096H231.676V-16.9863Z" fill="url(#paint0_linear_136_30)"/>
</g>
</g>
<defs>
<linearGradient id="paint0_linear_136_30" x1="-14.4532" y1="16.5617" x2="231.676" y2="16.5617" gradientUnits="userSpaceOnUse">
<stop stop-color="#009891"/>
<stop offset="1" stop-color="#00EAE0"/>
</linearGradient>
<clipPath id="clip0_136_30">
<rect width="227" height="31" fill="white"/>
</clipPath>
</defs>
</svg>
